<svg width="28" height="28" viewBox="0 0 28 28" fill="none" xmlns="http://www.w3.org/2000/svg">
<rect width="28" height="28" rx="14" fill="#2FBA38"/>
<path d="M18.4362 14.8971C18.4362 13.8046 19.3229 12.918 20.4154 12.918V12.1263C20.4154 8.95964 19.6237 8.16797 16.457 8.16797H8.54036C5.3737 8.16797 4.58203 8.95964 4.58203 12.1263V12.5221C5.67453 12.5221 6.5612 13.4088 6.5612 14.5013C6.5612 15.5938 5.67453 16.4805 4.58203 16.4805V16.8763C4.58203 20.043 5.3737 20.8346 8.54036 20.8346H16.457C19.6237 20.8346 20.4154 20.043 20.4154 16.8763C19.3229 16.8763 18.4362 15.9896 18.4362 14.8971Z" stroke="white" stroke-width="1.5" stroke-linecap="round" stroke-linejoin="round"/>
<path d="M10.918 8.16797L10.918 20.8346" stroke="white" stroke-width="1.5" stroke-linecap="round" stroke-linejoin="round" stroke-dasharray="5 5"/>
<path d="M22.6435 7.99835L21.9783 8.66351L14.8575 15.7844C14.7293 15.9125 14.6384 16.0731 14.5944 16.249L13.9964 18.6409L16.3883 18.0429C16.5642 17.999 16.7247 17.9081 16.8529 17.7799L23.9738 10.659L24.639 9.99384C25.19 9.4428 25.19 8.54939 24.639 7.99835C24.0879 7.44732 23.1945 7.44731 22.6435 7.99835Z" fill="#2FBA38"/>
<path d="M21.9783 8.66351L22.6435 7.99835C23.1945 7.44731 24.0879 7.44732 24.639 7.99835C25.19 8.54939 25.19 9.4428 24.639 9.99384L23.9738 10.659M21.9783 8.66351L14.8575 15.7844C14.7293 15.9125 14.6384 16.0731 14.5944 16.249L13.9964 18.6409L16.3883 18.0429C16.5642 17.999 16.7247 17.9081 16.8529 17.7799L23.9738 10.659M21.9783 8.66351L23.9738 10.659" stroke="white" stroke-linecap="round" stroke-linejoin="round"/>
</svg>
