<svg width="28" height="28" viewBox="0 0 28 28" fill="none" xmlns="http://www.w3.org/2000/svg">
<rect width="28" height="28" rx="14" fill="#2FBA38"/>
<g clip-path="url(#clip0_5394_38465)">
<path d="M24 10.2733C24 9.01963 22.9517 8 21.6628 8H6.33716C5.04828 8 4 9.01963 4 10.2733V17.7267C4 18.9804 5.04828 20 6.33716 20H21.6628C22.946 20 23.9904 18.9889 23.9996 17.7431C23.9996 17.7412 23.9996 17.7394 23.9996 17.7371C23.9996 17.7334 23.9996 17.7301 23.9996 17.7263V10.2733H24ZM23.1571 10.2733V16.52L21.4464 14.3533L21.5372 14.3559C21.541 14.3559 21.5448 14.3559 21.5487 14.3559C21.5487 14.3559 21.549 14.3559 21.5494 14.3559C21.7824 14.3559 21.9709 14.1725 21.9709 13.946C21.9709 13.8886 21.959 13.8342 21.9372 13.7846L21.7057 13.1507L22.2977 12.7557C22.4123 12.6793 22.4808 12.5529 22.4808 12.4176C22.4808 12.2824 22.4123 12.156 22.2977 12.0796L21.7057 11.6846L21.946 11.0265C21.9923 10.899 21.9713 10.7578 21.8897 10.6482C21.808 10.539 21.6762 10.4757 21.5372 10.4794L20.8195 10.4988L20.6169 9.82907C20.5774 9.69938 20.4751 9.59689 20.3429 9.55478C20.2107 9.51304 20.0655 9.53727 19.9556 9.62L19.3866 10.046L18.8176 9.62C18.7073 9.53764 18.5625 9.51304 18.4303 9.55478C18.2981 9.59652 18.1954 9.69901 18.1563 9.82907L18.0782 10.0873L17.0774 8.81988H21.6628C22.4866 8.81988 23.1571 9.47205 23.1571 10.2733ZM17.8115 12.6528L17.459 12.4176L17.8115 12.1825C17.969 12.0774 18.0341 11.8825 17.9701 11.7073L17.8272 11.3157L18.2548 11.3272C18.4475 11.3328 18.6169 11.2117 18.6709 11.0332L18.7912 10.6352L19.1295 10.8886C19.2812 11.0022 19.4923 11.0022 19.6437 10.8886L19.982 10.6352L20.1023 11.0332C20.1563 11.2117 20.3264 11.3328 20.5184 11.3272L20.9456 11.3157L20.8027 11.7073C20.7387 11.8825 20.8038 12.0774 20.9613 12.1825L21.3138 12.4176L20.9613 12.6528C20.8038 12.7579 20.7387 12.9528 20.8027 13.128L20.9456 13.5196L20.518 13.5081C20.3257 13.5029 20.1559 13.6236 20.1019 13.8021L19.9816 14.2001L19.6433 13.9467C19.4916 13.833 19.2808 13.833 19.1291 13.9467L18.7908 14.2001L18.6705 13.8021C18.6176 13.6273 18.4529 13.5081 18.2663 13.5081C18.2625 13.5081 18.2586 13.5081 18.2544 13.5081L17.8272 13.5196L17.9701 13.128C18.0341 12.9528 17.969 12.7579 17.8115 12.6528ZM21.6628 19.1801H6.33716C5.51341 19.1801 4.84291 18.528 4.84291 17.7267V10.2733C4.84291 9.47205 5.51341 8.81988 6.33716 8.81988H16.0146L17.3268 10.482L17.236 10.4794C17.0977 10.4757 16.9651 10.5386 16.8835 10.6482C16.8019 10.7574 16.7808 10.899 16.8272 11.0265L17.0674 11.6846L16.4755 12.0796C16.3609 12.156 16.2923 12.2824 16.2923 12.4176C16.2923 12.5529 16.3609 12.6793 16.4755 12.7557L17.0674 13.1507L16.8272 13.8088C16.7808 13.9363 16.8019 14.0775 16.8835 14.1871C16.9651 14.2963 17.0954 14.36 17.236 14.3559L17.9536 14.3365L18.1563 15.0062C18.1958 15.1359 18.2981 15.2384 18.4303 15.2805C18.5625 15.3222 18.7077 15.298 18.8176 15.2153L19.3866 14.7893L19.9556 15.2153C20.0303 15.2712 20.1211 15.3002 20.2126 15.3002C20.2563 15.3002 20.3004 15.2935 20.3429 15.2801C20.4751 15.2384 20.5778 15.1359 20.6169 15.0058L20.695 14.7476L23.1506 17.8575C23.082 18.5976 22.441 19.1798 21.6628 19.1798V19.1801ZM10.7605 12.222C10.7605 11.508 10.1632 10.927 9.42912 10.927C8.69502 10.927 8.0977 11.508 8.0977 12.222C8.0977 12.936 8.69502 13.517 9.42912 13.517C10.1632 13.517 10.7605 12.936 10.7605 12.222ZM9.42912 12.6971C9.15977 12.6971 8.94061 12.484 8.94061 12.222C8.94061 11.96 9.15977 11.7468 9.42912 11.7468C9.69847 11.7468 9.91762 11.96 9.91762 12.222C9.91762 12.484 9.69847 12.6971 9.42912 12.6971ZM14.1402 14.483C13.4061 14.483 12.8088 15.064 12.8088 15.778C12.8088 16.4921 13.4061 17.073 14.1402 17.073C14.8743 17.073 15.4716 16.4921 15.4716 15.778C15.4716 15.064 14.8743 14.483 14.1402 14.483ZM14.1402 16.2532C13.8709 16.2532 13.6517 16.04 13.6517 15.778C13.6517 15.516 13.8709 15.3029 14.1402 15.3029C14.4096 15.3029 14.6287 15.516 14.6287 15.778C14.6287 16.04 14.4096 16.2532 14.1402 16.2532ZM13.9954 11.4275L10.2816 17.0171C10.2011 17.1386 10.0655 17.2046 9.9272 17.2046C9.84904 17.2046 9.76973 17.1834 9.69885 17.139C9.50345 17.016 9.44713 16.7622 9.57356 16.5722L13.2874 10.9825C13.4138 10.7924 13.6743 10.7376 13.8701 10.8606C14.0655 10.9836 14.1218 11.2374 13.9954 11.4275Z" fill="white"/>
</g>
<defs>
<clipPath id="clip0_5394_38465">
<rect width="20" height="12" fill="white" transform="translate(4 8)"/>
</clipPath>
</defs>
</svg>
